<?xml version="1.0" encoding="utf-8"?>
<!-- Generator: Adobe Illustrator 16.0.3, SVG Export Plug-In . SVG Version: 6.00 Build 0)  -->
<!DOCTYPE svg PUBLIC "-//W3C//DTD SVG 1.1//EN" "http://www.w3.org/Graphics/SVG/1.1/DTD/svg11.dtd">
<svg version="1.1" id="Layer_1" xmlns="http://www.w3.org/2000/svg" xmlns:xlink="http://www.w3.org/1999/xlink" x="0px" y="0px"
	 width="600px" height="600px" viewBox="0 0 600 600" enable-background="new 0 0 600 600" xml:space="preserve">
<path fill="none" stroke="#231F20" stroke-width="3" stroke-miterlimit="10" d="M383.5,183.039c32.9,0,75.815,0,99.5,0
	c13.5,0,22.449,9.326,22.449,20.96c0,53.5,0,160.5,0,214c0,13.168-9.418,23.203-22.449,23.203c-39.535,0-157.143,0-157.143,0v15.306
	c0,0,46.893,0,62.244,0c2.552,0,2.551,10.204,0,10.204c-24.352,0-133.352,0-164.408,0c-2.545,0-2.545-10.184,0-10.184
	c12.431,0,63.388,0,63.388,0v-15.306c0,0-128.562-0.017-171.082-0.017c-10.166,0-18.714-11.342-18.714-24.207
	c0-53.25,0-159.167,0-213c0-12.634,9.881-20.96,18.715-20.96c53.868,0,147.858,0,229.5,0"/>
<path fill="none" stroke="#231F20" stroke-width="3" stroke-miterlimit="10" d="M368,204h115v213H115.5V204h217"/>
<path fill="none" stroke="#231F20" stroke-width="3" stroke-miterlimit="10" d="M312.5,429.5c0,3.59-2.91,6.5-6.5,6.5
	s-6.5-2.91-6.5-6.5s2.91-6.5,6.5-6.5S312.5,425.91,312.5,429.5z"/>
<path fill="none" stroke="#231F20" stroke-width="3" stroke-miterlimit="10" d="M306,283.5v107H144.5v-127h150"/>
<path fill="none" stroke="#231F20" stroke-width="3" stroke-miterlimit="10" d="M144.5,247v-30H305v30H144.5z"/>
<path fill="#FFFFFF" stroke="#231F20" stroke-width="3" stroke-miterlimit="10" d="M325.5,263.5h141"/>
<path fill="#FFFFFF" stroke="#231F20" stroke-width="3" stroke-miterlimit="10" d="M326.5,304h141"/>
<path fill="#FFFFFF" stroke="#231F20" stroke-width="3" stroke-miterlimit="10" d="M326.5,324.876h141"/>
<path fill="#FFFFFF" stroke="#231F20" stroke-width="3" stroke-miterlimit="10" d="M325.5,283.5h141"/>
<path fill="#FFFFFF" stroke="#231F20" stroke-width="3" stroke-miterlimit="10" d="M326.5,390.5h141"/>
<path fill="#FFFFFF" stroke="#231F20" stroke-width="3" stroke-miterlimit="10" d="M326.5,346h141"/>
<path fill="#FFFFFF" stroke="#231F20" stroke-width="3" stroke-miterlimit="10" d="M326.5,369h141"/>
<path fill="none" stroke="#231F20" stroke-width="3" stroke-miterlimit="10" d="M205,367c0,0,14.124-12.995,16-17
	c4.333-9.248,5.376-31.023,12.334-38.5c7.187-7.723,34.333-9.5,34.333-9.5L284,314.334c0,0-5.43,37.554-18.333,45.542
	C253.506,367.404,205,367,205,367z"/>
<path fill="none" stroke="#231F20" stroke-width="3" stroke-miterlimit="10" d="M278.667,290L404,89.333c0,0,19.393-1.189,25,3
	C433.943,96.026,439,113,439,113L292.334,300.666L278.667,290z"/>
</svg>
