<?xml version="1.0" encoding="utf-8"?>
<!-- Generator: Adobe Illustrator 16.0.3, SVG Export Plug-In . SVG Version: 6.00 Build 0)  -->
<!DOCTYPE svg PUBLIC "-//W3C//DTD SVG 1.1//EN" "http://www.w3.org/Graphics/SVG/1.1/DTD/svg11.dtd">
<svg version="1.1" id="Layer_1" xmlns="http://www.w3.org/2000/svg" xmlns:xlink="http://www.w3.org/1999/xlink" x="0px" y="0px"
	 width="600px" height="600px" viewBox="0 0 600 600" enable-background="new 0 0 600 600" xml:space="preserve">
<path fill="none" stroke="#231F20" stroke-width="3" stroke-miterlimit="10" d="M266.44,438.697c0,0-103.303-0.018-150.038-0.018
	c-11.173,0-20.568-12.466-20.568-26.606c0-58.527,0-174.941,0-234.11c0-13.886,10.86-23.037,20.57-23.037
	c98.919,0,264.528,0,365.371,0c14.838,0,24.674,10.25,24.674,23.038c0,58.802,0,176.406,0,235.208
	c0,14.474-10.352,25.503-24.674,25.503c-43.453,0-172.717,0-172.717,0L266.44,438.697z"/>
<path fill="none" stroke="#231F20" stroke-width="3" stroke-miterlimit="10" d="M488.944,195.065V422H113.5V195.065H488.944z"/>
<path fill="none" stroke="#231F20" stroke-width="3" stroke-miterlimit="10" d="M438,174.25c0,3.728-3.022,6.75-6.75,6.75
	s-6.75-3.022-6.75-6.75s3.022-6.75,6.75-6.75S438,170.522,438,174.25z"/>
<path fill="none" stroke="#231F20" stroke-width="3" stroke-miterlimit="10" d="M459.541,174.25c0,3.728-3.022,6.75-6.75,6.75
	s-6.75-3.022-6.75-6.75s3.022-6.75,6.75-6.75S459.541,170.522,459.541,174.25z"/>
<path fill="none" stroke="#231F20" stroke-width="3" stroke-miterlimit="10" d="M480.75,174.25c0,3.728-3.022,6.75-6.75,6.75
	s-6.75-3.022-6.75-6.75s3.022-6.75,6.75-6.75S480.75,170.522,480.75,174.25z"/>
<path fill="none" stroke="#231F20" stroke-width="10" stroke-linecap="round" stroke-miterlimit="10" d="M240.536,373.25
	L173.5,308.769l67.674-64.27"/>
<path fill="none" stroke="#231F20" stroke-width="10" stroke-linecap="round" stroke-miterlimit="10" d="M359.284,244.499
	l67.036,64.481l-67.674,64.27"/>
<path fill="#FFFFFF" stroke="#231F20" stroke-width="10" stroke-miterlimit="10" d="M267.563,373.25l63.418-128.751"/>
</svg>
