<?xml version="1.0" encoding="utf-8"?>
<!-- Generator: Adobe Illustrator 16.0.3, SVG Export Plug-In . SVG Version: 6.00 Build 0)  -->
<!DOCTYPE svg PUBLIC "-//W3C//DTD SVG 1.1//EN" "http://www.w3.org/Graphics/SVG/1.1/DTD/svg11.dtd">
<svg version="1.1" id="Layer_1" xmlns="http://www.w3.org/2000/svg" xmlns:xlink="http://www.w3.org/1999/xlink" x="0px" y="0px"
	 width="600px" height="600px" viewBox="0 0 600 600" enable-background="new 0 0 600 600" xml:space="preserve">
<path fill="none" stroke="#231F20" stroke-width="3" stroke-miterlimit="10" d="M343.675,242.68l88.909,113.406L265.592,468.081
	L133.599,289.59l163.319-106.55l33.476,43.32"/>
<path fill="none" stroke="#231F20" stroke-width="3" stroke-miterlimit="10" d="M268.226,200.54
	c0.778-3.655-0.731-1.709-0.226-10.04c0.35-5.751,2-16,11-18.5c7.654-2.126,15.875,12.04,12.918,29.5"/>
<path fill="none" stroke="#231F20" stroke-width="3" stroke-miterlimit="10" d="M246.011,215.435
	c0.778-3.655-0.731-1.709-0.226-10.04c0.35-5.751,2-16,11-18.5c7.654-2.126,15.875,12.04,12.918,29.5"/>
<path fill="none" stroke="#231F20" stroke-width="3" stroke-miterlimit="10" d="M224.37,229.751
	c0.778-3.655-0.731-1.709-0.226-10.04c0.35-5.751,2-16,11-18.5c7.654-2.126,15.875,12.04,12.918,29.5"/>
<path fill="none" stroke="#231F20" stroke-width="3" stroke-miterlimit="10" d="M202.729,243.607
	c0.778-3.655-0.731-1.709-0.226-10.04c0.35-5.751,2-16,11-18.5c7.654-2.126,15.875,12.04,12.918,29.5"/>
<path fill="none" stroke="#231F20" stroke-width="3" stroke-miterlimit="10" d="M181.087,258.019
	c0.778-3.655-0.731-1.709-0.226-10.04c0.35-5.751,2-16,11-18.5c7.654-2.126,15.875,12.04,12.918,29.5"/>
<path fill="none" stroke="#231F20" stroke-width="3" stroke-miterlimit="10" d="M159.446,271.875
	c0.778-3.655-0.731-1.709-0.226-10.04c0.35-5.751,2-16,11-18.5c7.654-2.126,15.875,12.04,12.918,29.5"/>
<path fill="none" stroke="#231F20" stroke-width="3" stroke-miterlimit="10" d="M137.93,285.37c0.778-3.655-0.731-1.709-0.226-10.04
	c0.35-5.751,2-16,11-18.5c7.654-2.126,15.875,12.04,12.918,29.5"/>
<path fill="#FFFFFF" stroke="#231F20" stroke-width="3" stroke-miterlimit="10" d="M307,314l3-9"/>
<path fill="none" stroke="#231F20" stroke-width="3" stroke-miterlimit="10" d="M309,307l1-26.721c0,0,7.771-1.097,10.024,0
	c2.055,1,5.642,7.196,5.642,7.196L309,307z"/>
<path fill="none" stroke="#231F20" stroke-width="3" stroke-miterlimit="10" d="M311.02,275.619L348,182c0,0,7.037-1.099,9,0
	c2.505,1.402,6,9.788,6,9.788l-35,92.19c0,0-4.061-6.83-6.334-7.979C319.288,274.799,311.02,275.619,311.02,275.619z"/>
<path fill="none" stroke="#231F20" stroke-width="3" stroke-miterlimit="10" d="M384,140l-17,49.788c0,0-4.021-10.092-7-11.788
	c-2.824-1.608-13,0-13,0l18-48c0,0,8.521-1.191,11,0c4.328,2.08,12,15,12,15l-15,45.788"/>
<path fill="none" stroke="#231F20" stroke-width="3" stroke-miterlimit="10" d="M432.584,363.333L265,476L134.599,300"/>
<path fill="none" stroke="#231F20" stroke-width="3" stroke-miterlimit="10" d="M432.084,370.333L264.5,484L134.1,308"/>
</svg>
