<?xml version="1.0" encoding="utf-8"?>
<!-- Generator: Adobe Illustrator 16.0.3, SVG Export Plug-In . SVG Version: 6.00 Build 0)  -->
<!DOCTYPE svg PUBLIC "-//W3C//DTD SVG 1.1//EN" "http://www.w3.org/Graphics/SVG/1.1/DTD/svg11.dtd">
<svg version="1.1" id="Layer_1" xmlns="http://www.w3.org/2000/svg" xmlns:xlink="http://www.w3.org/1999/xlink" x="0px" y="0px"
	 width="455.102px" height="185.714px" viewBox="0 0 455.102 185.714" enable-background="new 0 0 455.102 185.714"
	 xml:space="preserve">
<polygon fill="#4E41AF" stroke="#FFFFFF" stroke-width="3" stroke-miterlimit="10" points="449.417,63.952 401.961,74.679 
	399.029,21.25 446.439,8.113 428.702,35.647 "/>
<polygon fill="#4E41AF" stroke="#FFFFFF" stroke-width="3" stroke-miterlimit="10" points="4.848,104.959 61.237,92.755 
	64.169,146.183 7.826,160.799 25.296,128.271 "/>
<polygon fill="#705BD6" stroke="#FFFFFF" stroke-width="3" stroke-miterlimit="10" points="46.683,156.682 45.344,112.813 
	61.321,92.792 63.712,137.626 "/>
<polygon fill="#703BD6" stroke="#FFFFFF" stroke-width="3" stroke-miterlimit="10" points="398.074,21.345 401.424,84.134 
	426.229,98.976 422.826,35.168 "/>
<polygon fill="#705BD6" stroke="#FFFFFF" stroke-width="3" stroke-miterlimit="10" points="426.614,103.829 47.568,179.5 
	45.004,113.068 422.998,36.453 "/>
<g>
	<path fill="#FFFFFF" d="M144.158,142.062c-0.111-0.535-0.152-1.309-0.122-2.323c0.03-1.014,0.188-1.829,0.471-2.448
		c0.702-1.628,1.349-3.124,1.938-4.485s1.119-2.541,1.59-3.538s0.961-1.9,1.471-2.712c3.076-5.136,5.251-8.948,6.527-11.437
		c1.275-2.488,1.825-4.151,1.649-4.989c-0.117-0.558-0.465-0.94-1.042-1.147c-0.577-0.207-1.284-0.222-2.122-0.047
		c-1.722,0.361-3.757,1.425-6.105,3.191s-5.058,3.991-8.125,6.673c-3.068,2.682-4.799,4.064-5.194,4.147
		c-0.628,0.131-1.037-0.256-1.228-1.164c-0.161-0.768-0.146-1.911,0.046-3.433c0.051-1.613,0.104-2.868,0.158-3.766
		c0.055-0.897,0.285-1.741,0.689-2.53c0.405-0.788,1.158-1.711,2.261-2.768c1.103-1.056,2.823-2.545,5.164-4.468l0.619,1.218
		c2.001-1.342,3.924-2.448,5.769-3.321c1.845-0.872,3.453-1.452,4.825-1.739c2.698-0.565,4.707-0.507,6.028,0.176
		c1.32,0.683,2.302,2.558,2.945,5.628c0.351,1.675,0.398,3.122,0.144,4.34c-0.254,1.218-0.881,2.977-1.881,5.274
		c-2.248,5.375-3.997,9.141-5.245,11.296c-3.591,6.386-5.292,10.031-5.102,10.938c0.107,0.512,0.498,0.697,1.173,0.555
		c0.559-0.117,1.266-0.678,2.123-1.683c0.858-1.005,1.852-2.403,2.982-4.194c1.13-1.791,2.685-4.338,4.663-7.642
		c2.107-3.5,3.861-6.569,5.265-9.206c1.401-2.636,2.54-4.878,3.417-6.725c0.875-1.846,1.335-2.835,1.381-2.966
		c0.935-1.798,1.967-3.331,3.097-4.6c1.131-1.269,1.882-1.942,2.254-2.02c0.279-0.058,0.658,0.13,1.138,0.563
		c0.479,0.434,0.926,0.972,1.34,1.613c0.413,0.642,0.659,1.149,0.737,1.521c0.024,0.117-0.138,0.739-0.483,1.868
		c-0.346,1.129-0.731,2.302-1.156,3.52c-0.425,1.218-1.124,3.094-2.099,5.629c-2.136,5.57-3.689,10.2-4.665,13.888
		c-0.976,3.688-1.354,6.056-1.135,7.102c0.078,0.373,0.283,0.688,0.617,0.945c0.332,0.258,0.639,0.358,0.918,0.299
		c0.372-0.078,0.984-0.516,1.838-1.313c0.852-0.798,1.754-1.879,2.706-3.244c1.247-1.814,2.342-3.658,3.285-5.532
		c0.942-1.873,1.835-3.929,2.677-6.169c0.842-2.239,1.566-4.345,2.173-6.318c0.606-1.972,1.205-4.04,1.796-6.203l-0.966-1.655
		c-0.151-0.26-0.273-0.61-0.366-1.052c-0.073-0.349,0.376-1.626,1.346-3.833c0.971-2.207,1.676-3.355,2.119-3.448
		c0.488-0.102,0.975,0.167,1.461,0.805c0.485,0.639,0.805,1.319,0.955,2.04c0.166,0.791,0.141,2.441-0.074,4.95
		c-0.215,2.51-0.721,5.596-1.52,9.259s-1.939,7.459-3.423,11.388c-1.274,3.423-2.773,6.438-4.497,9.044
		c-1.724,2.607-3.349,4.617-4.874,6.028c-1.524,1.413-2.705,2.206-3.543,2.381c-0.954,0.2-2.041-0.01-3.263-0.627
		c-1.018-0.564-1.769-1.104-2.252-1.623c-0.485-0.518-0.859-1.112-1.121-1.786c-0.264-0.673-0.491-1.475-0.687-2.405
		c-0.414-1.977-0.353-4.406,0.186-7.287c0.538-2.88,1.474-6.523,2.809-10.931c-5.043,9.651-9.027,16.738-11.953,21.26
		c-2.925,4.522-5.248,6.963-6.97,7.323c-1.139,0.239-2.247-0.239-3.322-1.434C145.296,145.52,144.559,143.969,144.158,142.062z"/>
	<path fill="#FFFFFF" d="M197.124,126.705l0.184,0.872c0.287,1.373,0.848,2.372,1.684,2.998c0.835,0.626,1.799,0.825,2.893,0.596
		c1.14-0.239,2.264-0.753,3.373-1.544c1.109-0.79,2.176-1.754,3.2-2.892c1.023-1.137,2.252-2.632,3.686-4.486l0.445,2.128
		c-1.966,3.714-3.924,6.655-5.873,8.824s-4.109,3.501-6.481,3.998c-2.07,0.434-3.878-0.025-5.424-1.377
		c-1.545-1.351-2.61-3.422-3.195-6.213c-0.512-2.442-0.406-4.777,0.317-7.004c0.723-2.228,2.145-4.716,4.263-7.467
		c1.45-1.882,2.968-3.39,4.552-4.522c1.583-1.133,3.061-1.843,4.434-2.13c1.093-0.229,2.012-0.16,2.756,0.206
		c0.745,0.367,1.222,1.05,1.431,2.049c0.308,1.465,0.066,3.04-0.722,4.722c-0.789,1.683-2.155,3.474-4.101,5.375
		C202.599,122.735,200.126,124.692,197.124,126.705z M196.998,124.364c1.923-1.253,3.502-2.64,4.737-4.161
		c1.234-1.521,2.091-2.909,2.569-4.162c0.478-1.252,0.663-2.136,0.557-2.647c-0.112-0.535-0.413-0.751-0.901-0.649
		c-0.419,0.087-1.043,0.498-1.873,1.229c-0.83,0.733-1.638,1.631-2.422,2.693c-0.785,1.063-1.439,2.257-1.963,3.58
		C197.178,121.571,196.942,122.943,196.998,124.364z"/>
	<path fill="#FFFFFF" d="M228.734,118.371l0.54,2.582c-3.512,7.461-6.79,11.51-9.837,12.149c-1.651,0.346-3.137-0.284-4.456-1.889
		c-1.319-1.604-2.286-3.873-2.9-6.804c-0.496-2.372-0.529-5.309-0.098-8.811c0.433-3.502,1.231-7.128,2.4-10.882
		c1.168-3.753,2.495-7.09,3.984-10.012c1.487-2.921,2.986-5.063,4.499-6.423c0.61-0.565,1.112-0.889,1.508-0.972
		c0.489-0.103,0.859,0.044,1.112,0.44c0.253,0.397,0.489,1.118,0.708,2.164c0.678,3.233,0.195,7.48-1.446,12.74
		c-1.642,5.261-4.298,10.836-7.967,16.728c0.021,1.259,0.099,2.213,0.235,2.864c0.313,1.489,0.885,2.631,1.72,3.428
		c0.834,0.796,1.821,1.075,2.962,0.836c0.58-0.122,1.16-0.48,1.741-1.075c0.579-0.595,1.17-1.307,1.773-2.138
		C225.816,122.466,226.99,120.825,228.734,118.371z M216.987,114.276c0.96-1.439,1.847-3.033,2.658-4.781s1.536-3.587,2.177-5.519
		c0.639-1.93,1.1-3.641,1.383-5.133c0.281-1.491,0.35-2.586,0.204-3.284c-0.112-0.535-0.354-0.763-0.727-0.685
		c-0.14,0.029-0.381,0.213-0.723,0.552c-1.175,1.46-2.292,4.067-3.35,7.821C217.551,107.002,217.01,110.679,216.987,114.276z"/>
	<path fill="#FFFFFF" d="M249.508,114.492l0.49,2.338c-1.978,2.963-3.609,5.285-4.896,6.962c-1.287,1.678-2.534,3.032-3.738,4.061
		c-1.205,1.029-2.459,1.68-3.761,1.953c-1.279,0.268-2.561,0.008-3.842-0.779c-1.281-0.788-2.396-1.938-3.345-3.451
		c-0.949-1.513-1.614-3.188-2-5.025c-0.331-1.582-0.277-3.062,0.162-4.441c0.439-1.379,1.455-3.254,3.046-5.627
		c1.886-2.823,3.712-5.081,5.482-6.775c1.769-1.694,3.235-2.663,4.397-2.907c0.838-0.175,1.608-0.033,2.312,0.427
		s1.147,1.132,1.332,2.015c0.156,0.745-0.006,1.883-0.485,3.416c-0.48,1.534-1.091,2.905-1.833,4.117
		c-0.742,1.212-1.392,1.875-1.949,1.993c-0.605,0.127-0.976-0.136-1.112-0.787c-0.016-0.19-0.035-0.369-0.058-0.534
		c-0.022-0.165-0.051-0.329-0.085-0.492c-0.058-0.279-0.189-0.416-0.394-0.409c-0.206,0.007-0.426,0.144-0.662,0.412
		c-1.984,2.116-3.337,3.595-4.059,4.438c-0.723,0.843-1.263,1.655-1.621,2.433c-0.358,0.78-0.46,1.542-0.305,2.286
		c0.288,1.373,0.964,2.396,2.027,3.071c1.064,0.675,2.306,0.865,3.725,0.567c1.466-0.307,3.109-1.24,4.932-2.799
		C245.09,119.394,247.17,117.241,249.508,114.492z"/>
	<path fill="#FFFFFF" d="M271.777,109.681l0.489,2.337c-1.242,1.717-2.28,2.906-3.113,3.565c-0.833,0.661-2.131,1.127-3.895,1.399
		c-2.273,4.215-4.561,6.563-6.863,7.045c-1.303,0.274-2.579,0.092-3.829-0.544c-1.25-0.636-2.35-1.632-3.302-2.987
		c-0.951-1.354-1.619-2.95-2.005-4.788c-0.312-1.488-0.163-3.243,0.445-5.265c0.608-2.021,1.533-3.98,2.774-5.879
		c1.24-1.899,2.655-3.518,4.244-4.859c1.589-1.34,3.151-2.171,4.686-2.493c1.093-0.229,1.989-0.241,2.688-0.035
		c0.698,0.206,1.111,0.611,1.239,1.216c0.097,0.465-0.059,1.057-0.468,1.773c0.924,0.001,1.593,0.182,2.009,0.544
		c0.416,0.363,0.742,1.113,0.981,2.252c0.234,1.116,0.267,2.579,0.099,4.386c-0.167,1.808-0.549,3.551-1.144,5.229l0.759,0.497
		l0.525-0.11c0.394-0.083,0.763-0.263,1.105-0.541c0.342-0.278,0.642-0.559,0.897-0.844
		C270.354,111.296,270.914,110.663,271.777,109.681z M262.668,102.012c-1.688,1.567-3.118,2.966-4.293,4.195
		c-1.175,1.229-2.138,2.427-2.89,3.591c-0.751,1.166-1.188,2.271-1.308,3.315c-0.036,2.727-0.032,4.195,0.012,4.404
		c0.321,1.535,1.552,2.079,3.692,1.631c1-0.21,2.494-1.421,4.482-3.634c-0.625-1.01-1.042-2.015-1.251-3.016
		c-0.307-1.465-0.318-3.022-0.031-4.673C261.368,106.175,261.896,104.237,262.668,102.012z"/>
	<path fill="#FFFFFF" d="M288.67,111.205c2.613-3.509,4.852-6.558,6.714-9.146c1.861-2.586,3.323-4.623,4.384-6.107
		s2.003-2.75,2.828-3.797s1.376-1.599,1.655-1.658c0.53-0.135,1.158,0.31,1.883,1.335c0.725,1.026,1.157,1.876,1.299,2.55
		c0.093,0.442-0.428,1.637-1.561,3.586c-1.136,1.949-1.965,3.489-2.492,4.619c-0.529,1.13-0.681,2.23-0.457,3.3
		c0.132,0.627,0.447,1.09,0.946,1.386c0.498,0.296,1.039,0.383,1.621,0.262c0.675-0.142,1.41-0.659,2.205-1.555
		c0.796-0.895,2.018-2.45,3.666-4.665l0.519,2.477c-1.623,2.332-3.116,4.362-4.478,6.091c-1.362,1.73-2.58,3.066-3.657,4.008
		c-1.077,0.941-2.024,1.498-2.838,1.668c-0.722,0.151-1.383,0.005-1.985-0.439s-0.99-1.073-1.161-1.887
		c-0.165-0.791-0.192-1.623-0.086-2.495c0.109-0.873,0.337-1.928,0.685-3.166c0.348-1.238,0.834-2.742,1.459-4.512
		s1.195-3.388,1.714-4.857c-1.968,2.427-3.683,4.729-5.146,6.905c-1.463,2.176-2.635,4.054-3.518,5.635s-1.581,2.826-2.094,3.734
		c-1.002,1.715-2.06,2.689-3.175,2.923c-1.211,0.254-1.996-0.479-2.355-2.201c-0.146-0.698,0.046-2.043,0.575-4.035
		s1.339-4.56,2.429-7.702c0.1-0.215,0.109-0.52,0.026-0.917c-0.098-0.464-0.38-0.648-0.844-0.551
		c-0.513,0.108-1.149,0.745-1.912,1.913c-0.764,1.167-2.207,3.576-4.332,7.225c-0.587,1.021-1.219,2.326-1.895,3.911
		c-0.674,1.586-1.172,2.656-1.493,3.208c-0.322,0.554-0.691,0.874-1.109,0.961c-0.838,0.176-1.773-0.405-2.807-1.743
		c-1.032-1.337-1.755-2.994-2.17-4.972c-0.302-1.441-0.324-2.736-0.066-3.883c0.257-1.146,0.723-2.603,1.396-4.371
		c1.086-2.582,2.021-4.46,2.808-5.632c0.786-1.172,1.726-1.873,2.819-2.102c0.674-0.142,1.272-0.126,1.794,0.043
		c0.521,0.17,0.83,0.488,0.927,0.953c0.103,0.488-0.154,1.38-0.769,2.674c-0.616,1.295-1.449,2.671-2.504,4.13
		c-0.557,0.82-1.044,1.791-1.465,2.911c-0.422,1.12-0.585,1.901-0.492,2.343c0.13,0.627,0.441,0.891,0.93,0.788
		c0.395-0.083,1.225-1.106,2.487-3.071c1.264-1.964,2.655-4.107,4.171-6.428c1.518-2.32,2.963-4.286,4.337-5.897
		c1.374-1.611,2.631-2.536,3.771-2.774c0.698-0.146,1.329-0.006,1.892,0.422c0.563,0.429,0.925,1.027,1.086,1.794
		c0.107,0.512-0.048,1.509-0.465,2.993c-0.418,1.484-1.09,3.349-2.015,5.594C291.429,105.231,290.201,107.97,288.67,111.205z"/>
	<path fill="#FFFFFF" d="M316.992,101.594l0.182,0.872c0.288,1.373,0.849,2.372,1.685,2.998c0.835,0.626,1.8,0.825,2.893,0.596
		c1.14-0.239,2.265-0.753,3.373-1.544s2.176-1.755,3.2-2.892s2.253-2.633,3.686-4.487l0.445,2.128
		c-1.966,3.713-3.923,6.655-5.872,8.823c-1.95,2.168-4.109,3.501-6.482,3.999c-2.07,0.434-3.878-0.026-5.424-1.377
		c-1.546-1.351-2.611-3.422-3.195-6.213c-0.512-2.442-0.406-4.777,0.317-7.004s2.144-4.715,4.263-7.467
		c1.45-1.882,2.969-3.389,4.551-4.522c1.584-1.133,3.063-1.844,4.435-2.131c1.093-0.229,2.012-0.16,2.757,0.206
		c0.744,0.367,1.221,1.05,1.431,2.049c0.307,1.465,0.065,3.04-0.724,4.722c-0.788,1.683-2.155,3.475-4.1,5.375
		C322.465,97.624,319.993,99.581,316.992,101.594z M316.866,99.253c1.923-1.252,3.501-2.64,4.736-4.16
		c1.234-1.521,2.091-2.909,2.568-4.163c0.479-1.253,0.664-2.136,0.557-2.647c-0.111-0.535-0.411-0.751-0.899-0.649
		c-0.42,0.088-1.044,0.499-1.874,1.23c-0.829,0.733-1.638,1.63-2.422,2.692c-0.785,1.063-1.439,2.257-1.964,3.58
		C317.044,96.46,316.81,97.832,316.866,99.253z"/>
</g>
</svg>
